<?xml version="1.0" encoding="utf-8"?>
<!-- Generator: Adobe Illustrator 23.0.1, SVG Export Plug-In . SVG Version: 6.00 Build 0)  -->
<svg version="1.1" id="Layer_1" xmlns="http://www.w3.org/2000/svg" xmlns:xlink="http://www.w3.org/1999/xlink" x="0px" y="0px"
	 viewBox="0 0 36.4 21.4" style="enable-background:new 0 0 36.4 21.4;" xml:space="preserve">
<style type="text/css">
	.st0{fill:url(#SVGID_1_);}
</style>
<linearGradient id="SVGID_1_" gradientUnits="userSpaceOnUse" x1="6.8058" y1="-23.5733" x2="30.9948" y2="-5.2076" gradientTransform="matrix(1 0 0 -1 0 -3.1383)">
	<stop  offset="0" style="stop-color:#F9C0D9"/>
	<stop  offset="1" style="stop-color:#9C84CE"/>
</linearGradient>
<path class="st0" d="M19.1,21.4c-0.8,0-1.6-0.2-2.3-0.6c-0.7-0.4-1.3-1-1.7-1.7l-0.1-0.3L14.7,19c-0.7,0.5-1.5,0.8-2.3,0.8
	c-0.7,0-1.3-0.2-1.9-0.5c-0.6-0.3-1.1-0.8-1.4-1.4L9,17.7l-0.2,0.1C8,18,7.2,18.2,6.4,18.2c-0.9,0-1.8-0.2-2.7-0.6
	c-0.8-0.4-1.6-1-2.2-1.7c-0.6-0.7-1-1.6-1.3-2.5c-0.3-0.9-0.3-1.9-0.2-2.8c0.1-0.9,0.5-1.8,1-2.6c0.5-0.8,1.2-1.4,2-1.9
	c0.8-0.5,1.7-0.8,2.6-0.9c0.9-0.1,1.9,0,2.7,0.3l0.3,0.1l0.1-0.3c0.2-1,0.7-1.9,1.3-2.6c0.6-0.8,1.4-1.4,2.3-1.8
	c0.9-0.4,1.9-0.6,2.9-0.6c1,0,1.9,0.3,2.8,0.7L18.2,1l0.2-0.1l0.2-0.1C19.5,0.3,20.5,0,21.5,0c1,0,2,0.2,3,0.6
	c0.9,0.4,1.7,1.1,2.3,1.9c0.6,0.8,1,1.8,1.2,2.8l0.1,0.3l0.3-0.1c0.9-0.2,1.8-0.3,2.7-0.1c0.9,0.2,1.8,0.5,2.5,1
	c0.8,0.5,1.4,1.2,1.9,2c0.5,0.8,0.8,1.7,0.9,2.6c0.1,0.9,0,1.8-0.2,2.7c-0.3,0.9-0.7,1.7-1.3,2.4c-0.6,0.7-1.3,1.3-2.2,1.6
	c-0.8,0.4-1.7,0.6-2.6,0.6c-0.9,0-1.9-0.2-2.7-0.6l-0.2-0.1l-0.1,0.2c-0.3,0.6-0.8,1.1-1.4,1.4c-0.6,0.3-1.2,0.5-1.9,0.5
	c-0.3,0-0.6,0-0.8-0.1l-0.2,0l-0.1,0.1c-0.4,0.5-1,0.9-1.6,1.2C20.4,21.3,19.8,21.4,19.1,21.4z"/>
</svg>
