<svg width="32" height="35" viewBox="0 0 32 35" fill="none" xmlns="http://www.w3.org/2000/svg">
<g clip-path="url(#clip0_12:68)">
<path d="M13.2967 27.2222C19.6509 27.2222 24.802 21.524 24.802 14.4949C24.802 7.46586 19.6509 1.76767 13.2967 1.76767C6.9424 1.76767 1.79126 7.46586 1.79126 14.4949C1.79126 21.524 6.9424 27.2222 13.2967 27.2222Z" stroke="white" stroke-width="2" stroke-miterlimit="10" stroke-linecap="round"/>
<path d="M21.3915 24.3055L29.3425 33.0555" stroke="white" stroke-width="4" stroke-miterlimit="10"/>
<path d="M9.05405 9.32449L9.26977 11.0745L9.4855 12.904L10.0608 17.9949C9.62932 17.7563 9.12596 17.6768 8.6226 17.7563C7.11251 17.9154 6.10579 19.4268 6.24961 21.0972C6.39342 22.7677 7.75969 23.8813 9.26977 23.7222C10.7799 23.5631 11.7866 22.0518 11.6428 20.3813L10.7799 12.4268L17.3955 9.32449L17.9707 14.4154C17.5393 14.1768 17.0359 14.0972 16.5326 14.1768C15.0225 14.3359 14.0158 15.8472 14.1596 17.5177C14.3034 19.1881 15.6697 20.3018 17.1797 20.1427C18.546 19.9836 19.6246 18.6313 19.5527 17.1199L18.6179 8.84722L18.4022 7.33585L18.1865 5.10858L9.05405 9.32449Z" fill="white"/>
</g>
<defs>
<clipPath id="clip0_12:68">
<rect width="30.9207" height="35" fill="white" transform="translate(0.188721)"/>
</clipPath>
</defs>
</svg>
